<svg width="22" height="12" viewBox="0 0 22 12" fill="none" xmlns="http://www.w3.org/2000/svg">
<path d="M1 6.375H5.61538M8.69231 1.75961H11.7692V10.9904M21 8.68269V4.06731C21 3.45527 20.7569 2.8683 20.3241 2.43552C19.8913 2.00274 19.3043 1.75961 18.6923 1.75961C18.0803 1.75961 17.4933 2.00274 17.0605 2.43552C16.6277 2.8683 16.3846 3.45527 16.3846 4.06731V8.68269C16.3846 9.29473 16.6277 9.8817 17.0605 10.3145C17.4933 10.7473 18.0803 10.9904 18.6923 10.9904C19.3043 10.9904 19.8913 10.7473 20.3241 10.3145C20.7569 9.8817 21 9.29473 21 8.68269Z" stroke="white" stroke-width="2" stroke-linecap="round" stroke-linejoin="round"/>
</svg>
