<svg width="30" height="31" viewBox="0 0 30 31" fill="none" xmlns="http://www.w3.org/2000/svg">
<path d="M1 7.12493C1 4.48506 1 3.16513 1.82011 2.34504C2.6402 1.52493 3.96013 1.52493 6.6 1.52493C9.23987 1.52493 10.5598 1.52493 11.3799 2.34504C12.2 3.16513 12.2 4.48506 12.2 7.12493V23.9249C12.2 26.5648 12.2 27.8847 11.3799 28.7048C10.5598 29.5249 9.23987 29.5249 6.6 29.5249C3.96013 29.5249 2.6402 29.5249 1.82011 28.7048C1 27.8847 1 26.5648 1 23.9249V7.12493Z" stroke="white" stroke-width="2"/>
<path d="M17.8 7.12493C17.8 4.48506 17.8 3.16513 18.6201 2.34504C19.4402 1.52493 20.7602 1.52493 23.4 1.52493C26.0398 1.52493 27.3598 1.52493 28.1799 2.34504C29 3.16513 29 4.48506 29 7.12493V23.9249C29 26.5648 29 27.8847 28.1799 28.7048C27.3598 29.5249 26.0398 29.5249 23.4 29.5249C20.7602 29.5249 19.4402 29.5249 18.6201 28.7048C17.8 27.8847 17.8 26.5648 17.8 23.9249V7.12493Z" stroke="white" stroke-width="2"/>
</svg>
