<svg width="22" height="17" viewBox="0 0 22 17" fill="none" xmlns="http://www.w3.org/2000/svg">
<path d="M15 8.20355H21M18 11.2036V5.20355M6.4803 11.6105L8.15553 13.6836C9.0288 14.7643 9.4655 15.3046 9.848 15.3634C10.1792 15.4144 10.5138 15.296 10.7394 15.0483C11 14.7621 11 14.0674 11 12.6779V3.72921C11 2.33976 11 1.64504 10.7394 1.35885C10.5138 1.1111 10.1792 0.99279 9.848 1.0437C9.4655 1.10253 9.0288 1.64288 8.15553 2.72358L6.4803 4.79668C6.30388 5.015 6.21567 5.12416 6.10652 5.20271C6.00982 5.2723 5.90147 5.32405 5.78656 5.35553C5.65687 5.39105 5.51652 5.39105 5.23583 5.39105H3.8125C3.0563 5.39105 2.6782 5.39105 2.37264 5.49199C1.77131 5.69065 1.2996 6.16236 1.10094 6.76365C1 7.06925 1 7.44735 1 8.20355C1 8.95975 1 9.33785 1.10094 9.64345C1.2996 10.2448 1.77131 10.7165 2.37264 10.9152C2.6782 11.0161 3.0563 11.0161 3.8125 11.0161H5.23583C5.51652 11.0161 5.65687 11.0161 5.78656 11.0516C5.90147 11.0831 6.00982 11.1348 6.10652 11.2044C6.21567 11.283 6.30388 11.3921 6.4803 11.6105Z" stroke="white" stroke-width="2" stroke-linecap="round" stroke-linejoin="round"/>
</svg>
